<mxfile host="app.diagrams.net" modified="2021-02-06T17:30:19.687Z" agent="5.0 (Windows NT 10.0; Win64; x64) AppleWebKit/537.36 (KHTML, like Gecko) Chrome/88.0.4324.146 Safari/537.36 Edg/88.0.705.62" etag="mlanYhacVKcm_b6uyT5e" version="14.2.9" type="github">
  <diagram id="fhw7Gcsa4oTLrVTBU_38" name="Page-1">
    <mxGraphModel dx="1038" dy="556" grid="1" gridSize="10" guides="1" tooltips="1" connect="1" arrows="1" fold="1" page="1" pageScale="1" pageWidth="827" pageHeight="1169" math="0" shadow="0">
      <root>
        <mxCell id="0" />
        <mxCell id="1" parent="0" />
        <mxCell id="vzhQpynMpqruUw6QNbGc-1" value="&lt;b&gt;CUSTOMER&lt;/b&gt;" style="rounded=0;whiteSpace=wrap;html=1;strokeWidth=2;" parent="1" vertex="1">
          <mxGeometry x="80" y="140" width="120" height="60" as="geometry" />
        </mxCell>
        <mxCell id="vzhQpynMpqruUw6QNbGc-2" value="&lt;b&gt;EMPLOYEE&lt;/b&gt;" style="rounded=0;whiteSpace=wrap;html=1;strokeWidth=2;" parent="1" vertex="1">
          <mxGeometry x="460" y="140" width="120" height="60" as="geometry" />
        </mxCell>
        <mxCell id="vzhQpynMpqruUw6QNbGc-4" value="CID" style="ellipse;whiteSpace=wrap;html=1;strokeWidth=2;fontStyle=5" parent="1" vertex="1">
          <mxGeometry x="40" y="50" width="60" height="30" as="geometry" />
        </mxCell>
        <mxCell id="vzhQpynMpqruUw6QNbGc-5" value="Zip Code" style="ellipse;whiteSpace=wrap;html=1;strokeWidth=2;fontStyle=1" parent="1" vertex="1">
          <mxGeometry x="120" y="50" width="60" height="30" as="geometry" />
        </mxCell>
        <mxCell id="vzhQpynMpqruUw6QNbGc-7" value="&lt;u&gt;SSN&lt;/u&gt;" style="ellipse;whiteSpace=wrap;html=1;strokeWidth=2;fontStyle=1" parent="1" vertex="1">
          <mxGeometry x="500" y="50" width="60" height="30" as="geometry" />
        </mxCell>
        <mxCell id="vzhQpynMpqruUw6QNbGc-9" value="Zip Code" style="ellipse;whiteSpace=wrap;html=1;strokeWidth=2;fontStyle=1" parent="1" vertex="1">
          <mxGeometry x="600" y="60" width="60" height="30" as="geometry" />
        </mxCell>
        <mxCell id="vzhQpynMpqruUw6QNbGc-10" value="FULLNAME" style="ellipse;whiteSpace=wrap;html=1;strokeWidth=2;fontStyle=1" parent="1" vertex="1">
          <mxGeometry x="610" y="150" width="70" height="30" as="geometry" />
        </mxCell>
        <mxCell id="vzhQpynMpqruUw6QNbGc-11" value="FNAME" style="ellipse;whiteSpace=wrap;html=1;strokeWidth=2;fontStyle=1" parent="1" vertex="1">
          <mxGeometry x="700" y="80" width="60" height="30" as="geometry" />
        </mxCell>
        <mxCell id="vzhQpynMpqruUw6QNbGc-13" value="LNAME" style="ellipse;whiteSpace=wrap;html=1;strokeWidth=2;fontStyle=1" parent="1" vertex="1">
          <mxGeometry x="700" y="155" width="70" height="30" as="geometry" />
        </mxCell>
        <mxCell id="vzhQpynMpqruUw6QNbGc-14" value="Order ID" style="ellipse;whiteSpace=wrap;html=1;strokeWidth=2;fontStyle=5" parent="1" vertex="1">
          <mxGeometry x="170" y="330" width="60" height="30" as="geometry" />
        </mxCell>
        <mxCell id="vzhQpynMpqruUw6QNbGc-15" value="PNAME" style="ellipse;whiteSpace=wrap;html=1;strokeWidth=2;fontStyle=1" parent="1" vertex="1">
          <mxGeometry x="220" y="392.5" width="60" height="30" as="geometry" />
        </mxCell>
        <mxCell id="vzhQpynMpqruUw6QNbGc-16" value="" style="endArrow=none;html=1;exitX=0.5;exitY=1;exitDx=0;exitDy=0;" parent="1" source="vzhQpynMpqruUw6QNbGc-4" target="vzhQpynMpqruUw6QNbGc-1" edge="1">
          <mxGeometry width="50" height="50" relative="1" as="geometry">
            <mxPoint x="90" y="280" as="sourcePoint" />
            <mxPoint x="140" y="230" as="targetPoint" />
          </mxGeometry>
        </mxCell>
        <mxCell id="vzhQpynMpqruUw6QNbGc-17" value="" style="endArrow=none;html=1;exitX=0.5;exitY=1;exitDx=0;exitDy=0;entryX=0.5;entryY=0;entryDx=0;entryDy=0;" parent="1" source="vzhQpynMpqruUw6QNbGc-5" target="vzhQpynMpqruUw6QNbGc-1" edge="1">
          <mxGeometry width="50" height="50" relative="1" as="geometry">
            <mxPoint x="80" y="90" as="sourcePoint" />
            <mxPoint x="126.66666666666663" y="150" as="targetPoint" />
          </mxGeometry>
        </mxCell>
        <mxCell id="vzhQpynMpqruUw6QNbGc-21" value="&lt;u&gt;PID&lt;/u&gt;" style="ellipse;whiteSpace=wrap;html=1;strokeWidth=2;fontStyle=1" parent="1" vertex="1">
          <mxGeometry x="400" y="460" width="60" height="30" as="geometry" />
        </mxCell>
        <mxCell id="vzhQpynMpqruUw6QNbGc-22" value="PNAME" style="ellipse;whiteSpace=wrap;html=1;strokeWidth=2;fontStyle=1" parent="1" vertex="1">
          <mxGeometry x="480" y="460" width="60" height="30" as="geometry" />
        </mxCell>
        <mxCell id="vzhQpynMpqruUw6QNbGc-23" value="Price" style="ellipse;whiteSpace=wrap;html=1;strokeWidth=2;fontStyle=1" parent="1" vertex="1">
          <mxGeometry x="560" y="460" width="60" height="30" as="geometry" />
        </mxCell>
        <mxCell id="vzhQpynMpqruUw6QNbGc-24" value="Quantity" style="ellipse;whiteSpace=wrap;html=1;strokeWidth=2;fontStyle=1" parent="1" vertex="1">
          <mxGeometry x="620" y="387.5" width="90" height="40" as="geometry" />
        </mxCell>
        <mxCell id="vzhQpynMpqruUw6QNbGc-26" value="" style="endArrow=none;html=1;exitX=0.353;exitY=1.013;exitDx=0;exitDy=0;exitPerimeter=0;" parent="1" source="vzhQpynMpqruUw6QNbGc-9" edge="1">
          <mxGeometry width="50" height="50" relative="1" as="geometry">
            <mxPoint x="480" y="200" as="sourcePoint" />
            <mxPoint x="540" y="140" as="targetPoint" />
          </mxGeometry>
        </mxCell>
        <mxCell id="vzhQpynMpqruUw6QNbGc-27" value="" style="endArrow=none;html=1;entryX=1;entryY=0.5;entryDx=0;entryDy=0;exitX=0;exitY=0.5;exitDx=0;exitDy=0;" parent="1" source="vzhQpynMpqruUw6QNbGc-10" target="vzhQpynMpqruUw6QNbGc-2" edge="1">
          <mxGeometry width="50" height="50" relative="1" as="geometry">
            <mxPoint x="490" y="210" as="sourcePoint" />
            <mxPoint x="540" y="160" as="targetPoint" />
          </mxGeometry>
        </mxCell>
        <mxCell id="vzhQpynMpqruUw6QNbGc-28" value="" style="endArrow=none;html=1;exitX=0.5;exitY=1;exitDx=0;exitDy=0;entryX=0.25;entryY=0;entryDx=0;entryDy=0;" parent="1" source="vzhQpynMpqruUw6QNbGc-7" target="vzhQpynMpqruUw6QNbGc-2" edge="1">
          <mxGeometry width="50" height="50" relative="1" as="geometry">
            <mxPoint x="500" y="220" as="sourcePoint" />
            <mxPoint x="550" y="170" as="targetPoint" />
          </mxGeometry>
        </mxCell>
        <mxCell id="vzhQpynMpqruUw6QNbGc-30" value="" style="endArrow=none;html=1;entryX=0.5;entryY=0;entryDx=0;entryDy=0;exitX=0;exitY=0.5;exitDx=0;exitDy=0;" parent="1" source="vzhQpynMpqruUw6QNbGc-11" target="vzhQpynMpqruUw6QNbGc-10" edge="1">
          <mxGeometry width="50" height="50" relative="1" as="geometry">
            <mxPoint x="530" y="250" as="sourcePoint" />
            <mxPoint x="580" y="200" as="targetPoint" />
          </mxGeometry>
        </mxCell>
        <mxCell id="vzhQpynMpqruUw6QNbGc-32" value="" style="endArrow=none;html=1;entryX=0.5;entryY=1;entryDx=0;entryDy=0;exitX=0;exitY=0.5;exitDx=0;exitDy=0;" parent="1" source="vzhQpynMpqruUw6QNbGc-13" target="vzhQpynMpqruUw6QNbGc-10" edge="1">
          <mxGeometry width="50" height="50" relative="1" as="geometry">
            <mxPoint x="720" y="115" as="sourcePoint" />
            <mxPoint x="700" y="185" as="targetPoint" />
          </mxGeometry>
        </mxCell>
        <mxCell id="vzhQpynMpqruUw6QNbGc-33" value="" style="endArrow=none;html=1;entryX=1;entryY=0.5;entryDx=0;entryDy=0;exitX=-0.022;exitY=0.32;exitDx=0;exitDy=0;exitPerimeter=0;" parent="1" source="vzhQpynMpqruUw6QNbGc-24" target="vzhQpynMpqruUw6QNbGc-84" edge="1">
          <mxGeometry width="50" height="50" relative="1" as="geometry">
            <mxPoint x="730" y="125" as="sourcePoint" />
            <mxPoint x="590" y="370" as="targetPoint" />
          </mxGeometry>
        </mxCell>
        <mxCell id="vzhQpynMpqruUw6QNbGc-34" value="" style="endArrow=none;html=1;entryX=0;entryY=0;entryDx=97.5;entryDy=60;entryPerimeter=0;exitX=0.5;exitY=0;exitDx=0;exitDy=0;" parent="1" source="vzhQpynMpqruUw6QNbGc-23" edge="1">
          <mxGeometry width="50" height="50" relative="1" as="geometry">
            <mxPoint x="590" y="450" as="sourcePoint" />
            <mxPoint x="557.5" y="400" as="targetPoint" />
          </mxGeometry>
        </mxCell>
        <mxCell id="vzhQpynMpqruUw6QNbGc-35" value="" style="endArrow=none;html=1;entryX=0.5;entryY=1;entryDx=0;entryDy=0;exitX=0.5;exitY=0;exitDx=0;exitDy=0;entryPerimeter=0;" parent="1" source="vzhQpynMpqruUw6QNbGc-22" edge="1">
          <mxGeometry width="50" height="50" relative="1" as="geometry">
            <mxPoint x="648.02" y="402.79999999999995" as="sourcePoint" />
            <mxPoint x="525" y="400" as="targetPoint" />
          </mxGeometry>
        </mxCell>
        <mxCell id="vzhQpynMpqruUw6QNbGc-36" value="" style="endArrow=none;html=1;entryX=0;entryY=0;entryDx=32.5;entryDy=60;exitX=0.627;exitY=-0.04;exitDx=0;exitDy=0;entryPerimeter=0;exitPerimeter=0;" parent="1" source="vzhQpynMpqruUw6QNbGc-21" edge="1">
          <mxGeometry width="50" height="50" relative="1" as="geometry">
            <mxPoint x="658.02" y="412.79999999999995" as="sourcePoint" />
            <mxPoint x="492.5" y="400" as="targetPoint" />
          </mxGeometry>
        </mxCell>
        <mxCell id="vzhQpynMpqruUw6QNbGc-37" value="" style="endArrow=none;html=1;exitX=0.5;exitY=0;exitDx=0;exitDy=0;entryX=0;entryY=0.5;entryDx=0;entryDy=0;" parent="1" source="vzhQpynMpqruUw6QNbGc-14" target="vzhQpynMpqruUw6QNbGc-71" edge="1">
          <mxGeometry width="50" height="50" relative="1" as="geometry">
            <mxPoint x="160" y="410" as="sourcePoint" />
            <mxPoint x="80" y="370" as="targetPoint" />
          </mxGeometry>
        </mxCell>
        <mxCell id="vzhQpynMpqruUw6QNbGc-38" value="" style="endArrow=none;html=1;exitX=0.5;exitY=0;exitDx=0;exitDy=0;entryX=0;entryY=0.5;entryDx=0;entryDy=0;" parent="1" source="vzhQpynMpqruUw6QNbGc-15" target="vzhQpynMpqruUw6QNbGc-71" edge="1">
          <mxGeometry width="50" height="50" relative="1" as="geometry">
            <mxPoint x="80" y="410" as="sourcePoint" />
            <mxPoint x="140" y="400" as="targetPoint" />
          </mxGeometry>
        </mxCell>
        <mxCell id="vzhQpynMpqruUw6QNbGc-50" value="Order Number" style="ellipse;whiteSpace=wrap;html=1;strokeWidth=2;fontStyle=1" parent="1" vertex="1">
          <mxGeometry x="255" y="155" width="80" height="30" as="geometry" />
        </mxCell>
        <mxCell id="vzhQpynMpqruUw6QNbGc-51" value="" style="endArrow=none;html=1;rounded=0;entryX=1;entryY=0;entryDx=0;entryDy=0;exitX=0.5;exitY=1;exitDx=0;exitDy=0;" parent="1" source="vzhQpynMpqruUw6QNbGc-50" target="vzhQpynMpqruUw6QNbGc-71" edge="1">
          <mxGeometry relative="1" as="geometry">
            <mxPoint x="280" y="300" as="sourcePoint" />
            <mxPoint x="440" y="300" as="targetPoint" />
          </mxGeometry>
        </mxCell>
        <mxCell id="vzhQpynMpqruUw6QNbGc-93" value="" style="edgeStyle=orthogonalEdgeStyle;rounded=0;orthogonalLoop=1;jettySize=auto;html=1;" parent="1" edge="1">
          <mxGeometry relative="1" as="geometry">
            <mxPoint x="500" y="315" as="targetPoint" />
          </mxGeometry>
        </mxCell>
        <mxCell id="vzhQpynMpqruUw6QNbGc-71" value="order" style="shape=rhombus;perimeter=rhombusPerimeter;whiteSpace=wrap;html=1;align=center;strokeWidth=2;" parent="1" vertex="1">
          <mxGeometry x="300" y="250" width="90" height="45" as="geometry" />
        </mxCell>
        <mxCell id="vzhQpynMpqruUw6QNbGc-74" value="1" style="text;html=1;strokeColor=none;fillColor=none;align=center;verticalAlign=middle;whiteSpace=wrap;rounded=0;" parent="1" vertex="1">
          <mxGeometry x="110" y="200" width="40" height="20" as="geometry" />
        </mxCell>
        <mxCell id="vzhQpynMpqruUw6QNbGc-76" value="&lt;b&gt;MAIL_ORDER ERD&lt;/b&gt;" style="text;html=1;strokeColor=none;fillColor=none;align=center;verticalAlign=middle;whiteSpace=wrap;rounded=0;fontSize=20;" parent="1" vertex="1">
          <mxGeometry x="320" y="4" width="200" height="20" as="geometry" />
        </mxCell>
        <mxCell id="vzhQpynMpqruUw6QNbGc-77" value="FULLNAME" style="ellipse;whiteSpace=wrap;html=1;strokeWidth=2;fontStyle=1" parent="1" vertex="1">
          <mxGeometry x="185" y="80" width="70" height="30" as="geometry" />
        </mxCell>
        <mxCell id="vzhQpynMpqruUw6QNbGc-78" value="FNAME" style="ellipse;whiteSpace=wrap;html=1;strokeWidth=2;fontStyle=1" parent="1" vertex="1">
          <mxGeometry x="220" y="20" width="60" height="30" as="geometry" />
        </mxCell>
        <mxCell id="vzhQpynMpqruUw6QNbGc-79" value="LNAME" style="ellipse;whiteSpace=wrap;html=1;strokeWidth=2;fontStyle=1" parent="1" vertex="1">
          <mxGeometry x="290" y="50" width="70" height="30" as="geometry" />
        </mxCell>
        <mxCell id="vzhQpynMpqruUw6QNbGc-80" value="" style="endArrow=none;html=1;entryX=0.75;entryY=0;entryDx=0;entryDy=0;exitX=0;exitY=0.5;exitDx=0;exitDy=0;" parent="1" source="vzhQpynMpqruUw6QNbGc-77" target="vzhQpynMpqruUw6QNbGc-1" edge="1">
          <mxGeometry width="50" height="50" relative="1" as="geometry">
            <mxPoint x="500" y="220" as="sourcePoint" />
            <mxPoint x="590" y="180" as="targetPoint" />
          </mxGeometry>
        </mxCell>
        <mxCell id="vzhQpynMpqruUw6QNbGc-81" value="" style="endArrow=none;html=1;entryX=0.5;entryY=0;entryDx=0;entryDy=0;exitX=0;exitY=0.5;exitDx=0;exitDy=0;" parent="1" source="vzhQpynMpqruUw6QNbGc-78" target="vzhQpynMpqruUw6QNbGc-77" edge="1">
          <mxGeometry width="50" height="50" relative="1" as="geometry">
            <mxPoint x="150" y="190" as="sourcePoint" />
            <mxPoint x="200" y="140" as="targetPoint" />
          </mxGeometry>
        </mxCell>
        <mxCell id="vzhQpynMpqruUw6QNbGc-82" value="" style="endArrow=none;html=1;entryX=0.5;entryY=0;entryDx=0;entryDy=0;exitX=0;exitY=0.5;exitDx=0;exitDy=0;" parent="1" source="vzhQpynMpqruUw6QNbGc-79" target="vzhQpynMpqruUw6QNbGc-77" edge="1">
          <mxGeometry width="50" height="50" relative="1" as="geometry">
            <mxPoint x="340" y="55" as="sourcePoint" />
            <mxPoint x="320" y="125" as="targetPoint" />
          </mxGeometry>
        </mxCell>
        <mxCell id="vzhQpynMpqruUw6QNbGc-84" value="&lt;b&gt;PARTS&lt;/b&gt;" style="rounded=0;whiteSpace=wrap;html=1;strokeWidth=2;" parent="1" vertex="1">
          <mxGeometry x="450" y="340" width="120" height="60" as="geometry" />
        </mxCell>
        <mxCell id="vzhQpynMpqruUw6QNbGc-95" value="Date of receipt" style="ellipse;whiteSpace=wrap;html=1;strokeWidth=2;fontStyle=1" parent="1" vertex="1">
          <mxGeometry x="350" y="100" width="120" height="30" as="geometry" />
        </mxCell>
        <mxCell id="vzhQpynMpqruUw6QNbGc-96" value="Expected ship date" style="ellipse;whiteSpace=wrap;html=1;strokeWidth=2;fontStyle=1" parent="1" vertex="1">
          <mxGeometry x="414" y="230" width="120" height="30" as="geometry" />
        </mxCell>
        <mxCell id="vzhQpynMpqruUw6QNbGc-97" value="Actual ship date" style="ellipse;whiteSpace=wrap;html=1;strokeWidth=2;fontStyle=1" parent="1" vertex="1">
          <mxGeometry x="460" y="265" width="110" height="30" as="geometry" />
        </mxCell>
        <mxCell id="vzhQpynMpqruUw6QNbGc-98" value="" style="endArrow=none;html=1;rounded=0;entryX=0;entryY=0.5;entryDx=0;entryDy=0;exitX=1;exitY=0;exitDx=0;exitDy=0;" parent="1" source="vzhQpynMpqruUw6QNbGc-71" target="vzhQpynMpqruUw6QNbGc-95" edge="1">
          <mxGeometry relative="1" as="geometry">
            <mxPoint x="190" y="260" as="sourcePoint" />
            <mxPoint x="400" y="280" as="targetPoint" />
          </mxGeometry>
        </mxCell>
        <mxCell id="vzhQpynMpqruUw6QNbGc-99" value="" style="endArrow=none;html=1;rounded=0;entryX=0;entryY=0.5;entryDx=0;entryDy=0;exitX=1;exitY=0.5;exitDx=0;exitDy=0;" parent="1" source="vzhQpynMpqruUw6QNbGc-71" target="vzhQpynMpqruUw6QNbGc-96" edge="1">
          <mxGeometry relative="1" as="geometry">
            <mxPoint x="190" y="260" as="sourcePoint" />
            <mxPoint x="280" y="205" as="targetPoint" />
          </mxGeometry>
        </mxCell>
        <mxCell id="vzhQpynMpqruUw6QNbGc-100" value="" style="endArrow=none;html=1;rounded=0;entryX=1;entryY=0.5;entryDx=0;entryDy=0;exitX=0;exitY=0.5;exitDx=0;exitDy=0;" parent="1" source="vzhQpynMpqruUw6QNbGc-97" target="vzhQpynMpqruUw6QNbGc-71" edge="1">
          <mxGeometry relative="1" as="geometry">
            <mxPoint x="220" y="270" as="sourcePoint" />
            <mxPoint x="290" y="215" as="targetPoint" />
          </mxGeometry>
        </mxCell>
        <mxCell id="3dqwWF1tyTEujohG7SV6-2" value="&lt;span&gt;Amount&lt;/span&gt;" style="ellipse;whiteSpace=wrap;html=1;strokeWidth=2;fontStyle=1" parent="1" vertex="1">
          <mxGeometry x="125" y="270" width="60" height="30" as="geometry" />
        </mxCell>
        <mxCell id="3dqwWF1tyTEujohG7SV6-3" value="" style="endArrow=none;html=1;rounded=0;exitX=1;exitY=0;exitDx=0;exitDy=0;entryX=0;entryY=0.5;entryDx=0;entryDy=0;" parent="1" source="3dqwWF1tyTEujohG7SV6-2" target="vzhQpynMpqruUw6QNbGc-71" edge="1">
          <mxGeometry relative="1" as="geometry">
            <mxPoint x="570" y="290" as="sourcePoint" />
            <mxPoint x="730" y="290" as="targetPoint" />
          </mxGeometry>
        </mxCell>
        <mxCell id="3dqwWF1tyTEujohG7SV6-4" value="N&lt;span style=&quot;color: rgba(0 , 0 , 0 , 0) ; font-family: monospace ; font-size: 0px&quot;&gt;%3CmxGraphModel%3E%3Croot%3E%3CmxCell%20id%3D%220%22%2F%3E%3CmxCell%20id%3D%221%22%20parent%3D%220%22%2F%3E%3CmxCell%20id%3D%222%22%20value%3D%221%22%20style%3D%22text%3Bhtml%3D1%3BstrokeColor%3Dnone%3BfillColor%3Dnone%3Balign%3Dcenter%3BverticalAlign%3Dmiddle%3BwhiteSpace%3Dwrap%3Brounded%3D0%3B%22%20vertex%3D%221%22%20parent%3D%221%22%3E%3CmxGeometry%20x%3D%22110%22%20y%3D%22200%22%20width%3D%2240%22%20height%3D%2220%22%20as%3D%22geometry%22%2F%3E%3C%2FmxCell%3E%3C%2Froot%3E%3C%2FmxGraphModel%3E&lt;/span&gt;&lt;span style=&quot;color: rgba(0 , 0 , 0 , 0) ; font-family: monospace ; font-size: 0px&quot;&gt;%3CmxGraphModel%3E%3Croot%3E%3CmxCell%20id%3D%220%22%2F%3E%3CmxCell%20id%3D%221%22%20parent%3D%220%22%2F%3E%3CmxCell%20id%3D%222%22%20value%3D%221%22%20style%3D%22text%3Bhtml%3D1%3BstrokeColor%3Dnone%3BfillColor%3Dnone%3Balign%3Dcenter%3BverticalAlign%3Dmiddle%3BwhiteSpace%3Dwrap%3Brounded%3D0%3B%22%20vertex%3D%221%22%20parent%3D%221%22%3E%3CmxGeometry%20x%3D%22110%22%20y%3D%22200%22%20width%3D%2240%22%20height%3D%2220%22%20as%3D%22geometry%22%2F%3E%3C%2FmxCell%3E%3C%2Froot%3E%3C%2FmxGraphModel%3E&lt;/span&gt;&lt;span style=&quot;color: rgba(0 , 0 , 0 , 0) ; font-family: monospace ; font-size: 0px&quot;&gt;%3CmxGraphModel%3E%3Croot%3E%3CmxCell%20id%3D%220%22%2F%3E%3CmxCell%20id%3D%221%22%20parent%3D%220%22%2F%3E%3CmxCell%20id%3D%222%22%20value%3D%221%22%20style%3D%22text%3Bhtml%3D1%3BstrokeColor%3Dnone%3BfillColor%3Dnone%3Balign%3Dcenter%3BverticalAlign%3Dmiddle%3BwhiteSpace%3Dwrap%3Brounded%3D0%3B%22%20vertex%3D%221%22%20parent%3D%221%22%3E%3CmxGeometry%20x%3D%22110%22%20y%3D%22200%22%20width%3D%2240%22%20height%3D%2220%22%20as%3D%22geometry%22%2F%3E%3C%2FmxCell%3E%3C%2Froot%3E%3C%2FmxGraphModel%3E&lt;/span&gt;" style="text;html=1;strokeColor=none;fillColor=none;align=center;verticalAlign=middle;whiteSpace=wrap;rounded=0;" parent="1" vertex="1">
          <mxGeometry x="420" y="320" width="40" height="20" as="geometry" />
        </mxCell>
        <mxCell id="3dqwWF1tyTEujohG7SV6-5" value="1" style="text;html=1;strokeColor=none;fillColor=none;align=center;verticalAlign=middle;whiteSpace=wrap;rounded=0;" parent="1" vertex="1">
          <mxGeometry x="400" y="170" width="40" height="20" as="geometry" />
        </mxCell>
        <mxCell id="3dqwWF1tyTEujohG7SV6-6" value="" style="endArrow=none;html=1;rounded=0;exitX=0;exitY=0.5;exitDx=0;exitDy=0;" parent="1" source="vzhQpynMpqruUw6QNbGc-2" edge="1">
          <mxGeometry relative="1" as="geometry">
            <mxPoint x="570" y="290" as="sourcePoint" />
            <mxPoint x="370" y="260" as="targetPoint" />
          </mxGeometry>
        </mxCell>
        <mxCell id="8_VRYP21Z1W-Z55jAOnM-1" value="" style="shape=link;html=1;rounded=0;exitX=0.75;exitY=0;exitDx=0;exitDy=0;entryX=0;entryY=0;entryDx=0;entryDy=0;" edge="1" parent="1" source="vzhQpynMpqruUw6QNbGc-74" target="vzhQpynMpqruUw6QNbGc-71">
          <mxGeometry relative="1" as="geometry">
            <mxPoint x="330" y="290" as="sourcePoint" />
            <mxPoint x="490" y="290" as="targetPoint" />
          </mxGeometry>
        </mxCell>
        <mxCell id="8_VRYP21Z1W-Z55jAOnM-3" value="" style="shape=link;html=1;rounded=0;entryX=0.5;entryY=0;entryDx=0;entryDy=0;exitX=0.5;exitY=1;exitDx=0;exitDy=0;" edge="1" parent="1" source="vzhQpynMpqruUw6QNbGc-71" target="vzhQpynMpqruUw6QNbGc-84">
          <mxGeometry relative="1" as="geometry">
            <mxPoint x="330" y="290" as="sourcePoint" />
            <mxPoint x="490" y="290" as="targetPoint" />
          </mxGeometry>
        </mxCell>
      </root>
    </mxGraphModel>
  </diagram>
</mxfile>
